<?xml version="1.0" encoding="UTF-8" standalone="no"?>
<!DOCTYPE svg PUBLIC "-//W3C//DTD SVG 1.1//EN"
 "http://www.w3.org/Graphics/SVG/1.1/DTD/svg11.dtd">
<!-- Generated by graphviz version 2.38.0 (20140413.2041)
 -->
<!-- Title: G Pages: 1 -->
<svg width="15381pt" height="8117pt"
 viewBox="0.00 0.00 1845.67 974.00" xmlns="http://www.w3.org/2000/svg" xmlns:xlink="http://www.w3.org/1999/xlink">
<g id="graph0" class="graph" transform="scale(8.33333 8.33333) rotate(0) translate(4 970)">
<title>G</title>
<polygon fill="white" stroke="none" points="-4,4 -4,-970 1841.67,-970 1841.67,4 -4,4"/>
<!-- $ -->
<g id="node1" class="node"><title>$</title>
<ellipse fill="none" stroke="black" cx="653" cy="-22" rx="18" ry="18"/>
<ellipse fill="none" stroke="black" cx="653" cy="-22" rx="22" ry="22"/>
<text text-anchor="middle" x="653" y="-18.3" font-family="Times New Roman,serif" font-size="14.00">$</text>
</g>
<!-- EditReservation.End -->
<g id="node2" class="node"><title>EditReservation.End</title>
<ellipse fill="none" stroke="black" cx="842" cy="-99" rx="85.2851" ry="18"/>
<text text-anchor="middle" x="842" y="-95.3" font-family="Times New Roman,serif" font-size="14.00">EditReservation.End</text>
</g>
<!-- EditReservation.End&#45;&gt;$ -->
<g id="edge9" class="edge"><title>EditReservation.End&#45;&gt;$</title>
<path fill="none" stroke="black" d="M803.753,-82.8226C767.976,-68.6254 715.286,-47.7165 682.611,-34.7502"/>
<polygon fill="black" stroke="black" points="683.739,-31.4327 673.154,-30.9974 681.157,-37.9392 683.739,-31.4327"/>
</g>
<!-- EditReservation.ReservationCar -->
<g id="node3" class="node"><title>EditReservation.ReservationCar</title>
<ellipse fill="none" stroke="black" cx="860" cy="-273" rx="126.978" ry="18"/>
<text text-anchor="middle" x="860" y="-269.3" font-family="Times New Roman,serif" font-size="14.00">EditReservation.ReservationCar</text>
</g>
<!-- EditReservation.ReservationCar&#45;&gt;$ -->
<g id="edge7" class="edge"><title>EditReservation.ReservationCar&#45;&gt;$</title>
<path fill="none" stroke="black" d="M818.756,-255.91C794.94,-244.671 766.191,-227.459 748,-204 707.592,-151.89 742.812,-116.023 705,-62 698.642,-52.9166 689.505,-45.061 680.659,-38.8286"/>
<polygon fill="black" stroke="black" points="682.302,-35.7201 672.023,-33.152 678.457,-41.5696 682.302,-35.7201"/>
</g>
<!-- EditReservation.ReservationLocation -->
<g id="node4" class="node"><title>EditReservation.ReservationLocation</title>
<ellipse fill="none" stroke="black" cx="827" cy="-360" rx="145.674" ry="18"/>
<text text-anchor="middle" x="827" y="-356.3" font-family="Times New Roman,serif" font-size="14.00">EditReservation.ReservationLocation</text>
</g>
<!-- EditReservation.ReservationCar&#45;&gt;EditReservation.ReservationLocation -->
<g id="edge29" class="edge"><title>EditReservation.ReservationCar&#45;&gt;EditReservation.ReservationLocation</title>
<path fill="none" stroke="black" d="M775.455,-286.466C750.849,-291.924 728.534,-299.333 721,-309 709.816,-323.35 719.375,-333.775 736.553,-341.267"/>
<polygon fill="black" stroke="black" points="735.569,-344.637 746.16,-344.922 738.059,-338.095 735.569,-344.637"/>
<text text-anchor="middle" x="835" y="-312.8" font-family="Times New Roman,serif" font-size="14.00">[${action}=&quot;back&quot;] / [${event}=&quot;back&quot;]</text>
</g>
<!-- EditReservation.ReservationSuccess -->
<g id="node5" class="node"><title>EditReservation.ReservationSuccess</title>
<ellipse fill="none" stroke="black" cx="901" cy="-186" rx="143.775" ry="18"/>
<text text-anchor="middle" x="901" y="-182.3" font-family="Times New Roman,serif" font-size="14.00">EditReservation.ReservationSuccess</text>
</g>
<!-- EditReservation.ReservationCar&#45;&gt;EditReservation.ReservationSuccess -->
<g id="edge30" class="edge"><title>EditReservation.ReservationCar&#45;&gt;EditReservation.ReservationSuccess</title>
<path fill="none" stroke="black" d="M868.297,-254.799C874.021,-242.932 881.741,-226.928 888.242,-213.449"/>
<polygon fill="black" stroke="black" points="891.523,-214.703 892.715,-204.175 885.218,-211.662 891.523,-214.703"/>
<text text-anchor="middle" x="1027.5" y="-225.8" font-family="Times New Roman,serif" font-size="14.00">[${action}=&quot;saveReservation&quot;] / [${event}=&quot;save&quot;]</text>
</g>
<!-- EditReservation.ReservationLocation&#45;&gt;$ -->
<g id="edge6" class="edge"><title>EditReservation.ReservationLocation&#45;&gt;$</title>
<path fill="none" stroke="black" d="M748.695,-344.789C735.731,-339.808 723.209,-333.083 713,-324 694.861,-307.862 691,-298.278 691,-274 691,-274 691,-274 691,-98 691,-79.9194 682.104,-61.7769 672.92,-47.8653"/>
<polygon fill="black" stroke="black" points="675.558,-45.5326 666.934,-39.3776 669.837,-49.5669 675.558,-45.5326"/>
</g>
<!-- EditReservation.ReservationLocation&#45;&gt;EditReservation.End -->
<g id="edge28" class="edge"><title>EditReservation.ReservationLocation&#45;&gt;EditReservation.End</title>
<path fill="none" stroke="black" d="M969.377,-356.219C1081.08,-352.519 1220.7,-343.923 1239,-324 1343.44,-210.316 1058.21,-139.824 916.514,-112.708"/>
<polygon fill="black" stroke="black" points="917.043,-109.246 906.568,-110.83 915.745,-116.124 917.043,-109.246"/>
<text text-anchor="middle" x="1302.5" y="-225.8" font-family="Times New Roman,serif" font-size="14.00">[] / [${event}=&quot;exit&quot;]</text>
</g>
<!-- EditReservation.ReservationLocation&#45;&gt;EditReservation.ReservationCar -->
<g id="edge27" class="edge"><title>EditReservation.ReservationLocation&#45;&gt;EditReservation.ReservationCar</title>
<path fill="none" stroke="black" d="M906.754,-344.897C927.84,-339.471 946.543,-332.495 953,-324 963.485,-310.205 953.549,-299.781 936.841,-292.118"/>
<polygon fill="black" stroke="black" points="938.142,-288.869 927.56,-288.36 935.515,-295.357 938.142,-288.869"/>
<text text-anchor="middle" x="1096.5" y="-312.8" font-family="Times New Roman,serif" font-size="14.00">[${action}=&quot;selectCar&quot;] / [${event}=&quot;selectCar&quot;]</text>
</g>
<!-- EditReservation.ReservationLocation&#45;&gt;EditReservation.ReservationLocation -->
<g id="edge25" class="edge"><title>EditReservation.ReservationLocation&#45;&gt;EditReservation.ReservationLocation</title>
<path fill="none" stroke="black" d="M971.109,-362.608C983.117,-362.047 990.587,-361.178 990.587,-360 990.587,-359.209 987.215,-358.557 981.36,-358.044"/>
<polygon fill="black" stroke="black" points="981.311,-354.533 971.109,-357.392 980.867,-361.519 981.311,-354.533"/>
<text text-anchor="middle" x="1113.59" y="-356.3" font-family="Times New Roman,serif" font-size="14.00">[${action}=&quot;search&quot;] / [${event}=&quot;search&quot;]</text>
</g>
<!-- EditReservation.ReservationLocation&#45;&gt;EditReservation.ReservationLocation -->
<g id="edge26" class="edge"><title>EditReservation.ReservationLocation&#45;&gt;EditReservation.ReservationLocation</title>
<path fill="none" stroke="black" d="M964.192,-366.066C1084.92,-367.955 1236.59,-365.933 1236.59,-360 1236.59,-354.235 1093.38,-352.163 974.519,-353.783"/>
<polygon fill="black" stroke="black" points="974.14,-350.288 964.192,-353.934 974.242,-357.287 974.14,-350.288"/>
<text text-anchor="middle" x="1417.09" y="-356.3" font-family="Times New Roman,serif" font-size="14.00">[${action}=&quot;locationChanged&quot;] / [${event}=&quot;locationChanged&quot;]</text>
</g>
<!-- EditReservation.ReservationSuccess&#45;&gt;$ -->
<g id="edge8" class="edge"><title>EditReservation.ReservationSuccess&#45;&gt;$</title>
<path fill="none" stroke="black" d="M939.146,-168.531C946.299,-163.639 952.832,-157.521 957,-150 969.139,-128.098 952.474,-94.9047 936,-81 898.243,-49.1313 750.966,-31.961 685.12,-25.7418"/>
<polygon fill="black" stroke="black" points="685.191,-22.2337 674.913,-24.8043 684.551,-29.2043 685.191,-22.2337"/>
</g>
<!-- EditReservation.ReservationSuccess&#45;&gt;EditReservation.End -->
<g id="edge31" class="edge"><title>EditReservation.ReservationSuccess&#45;&gt;EditReservation.End</title>
<path fill="none" stroke="black" d="M848.954,-169.182C840.629,-164.349 833.092,-158.088 828,-150 823.561,-142.95 824.152,-134.473 826.72,-126.519"/>
<polygon fill="black" stroke="black" points="829.985,-127.782 830.627,-117.207 823.53,-125.074 829.985,-127.782"/>
<text text-anchor="middle" x="892.5" y="-138.8" font-family="Times New Roman,serif" font-size="14.00">[] / [${event}=&quot;close&quot;]</text>
</g>
<!-- EditReservation.Start -->
<g id="node6" class="node"><title>EditReservation.Start</title>
<ellipse fill="none" stroke="black" cx="827" cy="-433" rx="87.9851" ry="18"/>
<text text-anchor="middle" x="827" y="-429.3" font-family="Times New Roman,serif" font-size="14.00">EditReservation.Start</text>
</g>
<!-- EditReservation.Start&#45;&gt;$ -->
<g id="edge5" class="edge"><title>EditReservation.Start&#45;&gt;$</title>
<path fill="none" stroke="black" d="M742.294,-428.197C698.043,-421.128 653,-403.496 653,-361 653,-361 653,-361 653,-98 653,-83.616 653,-67.6804 653,-54.2106"/>
<polygon fill="black" stroke="black" points="656.5,-54.0134 653,-44.0135 649.5,-54.0135 656.5,-54.0134"/>
</g>
<!-- EditReservation.Start&#45;&gt;EditReservation.ReservationLocation -->
<g id="edge24" class="edge"><title>EditReservation.Start&#45;&gt;EditReservation.ReservationLocation</title>
<path fill="none" stroke="black" d="M827,-414.813C827,-406.789 827,-397.047 827,-388.069"/>
<polygon fill="black" stroke="black" points="830.5,-388.029 827,-378.029 823.5,-388.029 830.5,-388.029"/>
</g>
<!-- EditUser.EditReservationCall -->
<g id="node7" class="node"><title>EditUser.EditReservationCall</title>
<ellipse fill="none" stroke="black" cx="829" cy="-541" rx="116.18" ry="18"/>
<text text-anchor="middle" x="829" y="-537.3" font-family="Times New Roman,serif" font-size="14.00">EditUser.EditReservationCall</text>
</g>
<!-- EditUser.EditReservationCall&#45;&gt;$ -->
<g id="edge3" class="edge"><title>EditUser.EditReservationCall&#45;&gt;$</title>
<path fill="none" stroke="black" d="M942.322,-536.783C1166.26,-528.908 1644,-503.916 1644,-434 1644,-434 1644,-434 1644,-98 1644,-48.7499 855.492,-27.6871 685.179,-23.7121"/>
<polygon fill="black" stroke="black" points="685.166,-20.2109 675.088,-23.4798 685.005,-27.2091 685.166,-20.2109"/>
</g>
<!-- EditUser.EditReservationCall&#45;&gt;EditReservation.Start -->
<g id="edge23" class="edge"><title>EditUser.EditReservationCall&#45;&gt;EditReservation.Start</title>
<path fill="none" stroke="black" d="M828.679,-522.969C828.366,-506.378 827.885,-480.883 827.518,-461.431"/>
<polygon fill="black" stroke="black" points="831.015,-461.273 827.327,-451.341 824.017,-461.405 831.015,-461.273"/>
</g>
<!-- EditUser.EditUser -->
<g id="node8" class="node"><title>EditUser.EditUser</title>
<ellipse fill="none" stroke="black" cx="603" cy="-628" rx="76.8869" ry="18"/>
<text text-anchor="middle" x="603" y="-624.3" font-family="Times New Roman,serif" font-size="14.00">EditUser.EditUser</text>
</g>
<!-- EditUser.EditUser&#45;&gt;$ -->
<g id="edge2" class="edge"><title>EditUser.EditUser&#45;&gt;$</title>
<path fill="none" stroke="black" d="M675.579,-622.044C719.015,-617.396 768.363,-608.561 782,-592 786.238,-586.853 786.15,-582.217 782,-577 759.851,-549.158 730.695,-582.52 704,-559 661.086,-521.19 615,-374.695 615,-317.5 615,-317.5 615,-317.5 615,-98 615,-79.9194 623.896,-61.7769 633.08,-47.8653"/>
<polygon fill="black" stroke="black" points="636.163,-49.5669 639.066,-39.3776 630.442,-45.5326 636.163,-49.5669"/>
</g>
<!-- EditUser.EditUser&#45;&gt;EditUser.EditReservationCall -->
<g id="edge19" class="edge"><title>EditUser.EditUser&#45;&gt;EditUser.EditReservationCall</title>
<path fill="none" stroke="black" d="M675.054,-621.832C725.257,-616.915 786.716,-607.843 807,-592 814.306,-586.294 819.24,-577.655 822.548,-569.156"/>
<polygon fill="black" stroke="black" points="825.949,-570.018 825.73,-559.426 819.295,-567.843 825.949,-570.018"/>
<text text-anchor="middle" x="992" y="-580.8" font-family="Times New Roman,serif" font-size="14.00">[${action}=&quot;editReservation&quot;] / [${event}=&quot;editReservation&quot;]</text>
</g>
<!-- EditUser.EditUser&#45;&gt;EditUser.EditUser -->
<g id="edge17" class="edge"><title>EditUser.EditUser&#45;&gt;EditUser.EditUser</title>
<path fill="none" stroke="black" d="M679.537,-629.514C690.402,-629.269 697.693,-628.765 697.693,-628 697.693,-627.51 694.701,-627.127 689.694,-626.85"/>
<polygon fill="black" stroke="black" points="689.656,-623.347 679.537,-626.486 689.405,-630.342 689.656,-623.347"/>
<text text-anchor="middle" x="882.693" y="-624.3" font-family="Times New Roman,serif" font-size="14.00">[${action}=&quot;deleteReservation&quot;] / [${event}=&quot;deleteReservation&quot;]</text>
</g>
<!-- EditUser.EditUser&#45;&gt;EditUser.EditUser -->
<g id="edge18" class="edge"><title>EditUser.EditUser&#45;&gt;EditUser.EditUser</title>
<path fill="none" stroke="black" d="M679.276,-630.369C812.505,-632.268 1067.69,-631.478 1067.69,-628 1067.69,-624.61 825.299,-623.774 689.654,-625.491"/>
<polygon fill="black" stroke="black" points="689.228,-621.997 679.276,-625.631 689.322,-628.996 689.228,-621.997"/>
<text text-anchor="middle" x="1264.69" y="-624.3" font-family="Times New Roman,serif" font-size="14.00">[${action}=&quot;reservationChanged&quot;] / [${event}=&quot;reservationChanged&quot;]</text>
</g>
<!-- EditUser.EditUser&#45;&gt;EditUser.EditUser -->
<g id="edge21" class="edge"><title>EditUser.EditUser&#45;&gt;EditUser.EditUser</title>
<path fill="none" stroke="black" d="M678.996,-630.764C890.756,-634.57 1461.69,-633.649 1461.69,-628 1461.69,-622.439 908.459,-621.459 689.182,-625.061"/>
<polygon fill="black" stroke="black" points="688.934,-621.565 678.996,-625.236 689.054,-628.564 688.934,-621.565"/>
<text text-anchor="middle" x="1523.69" y="-624.3" font-family="Times New Roman,serif" font-size="14.00">[] / [${guard}=&quot;End&quot;]</text>
</g>
<!-- EditUser.EditUser&#45;&gt;EditUser.EditUser -->
<g id="edge22" class="edge"><title>EditUser.EditUser&#45;&gt;EditUser.EditUser</title>
<path fill="none" stroke="black" d="M678.333,-631.431C910.578,-636.799 1585.69,-635.655 1585.69,-628 1585.69,-620.453 929.562,-619.235 688.462,-624.344"/>
<polygon fill="black" stroke="black" points="688.253,-620.848 678.333,-624.569 688.408,-627.846 688.253,-620.848"/>
<text text-anchor="middle" x="1647.19" y="-624.3" font-family="Times New Roman,serif" font-size="14.00">[] / [${guard}=&quot;else&quot;]</text>
</g>
<!-- EditUser.End -->
<g id="node9" class="node"><title>EditUser.End</title>
<ellipse fill="none" stroke="black" cx="574" cy="-487" rx="59.5901" ry="18"/>
<text text-anchor="middle" x="574" y="-483.3" font-family="Times New Roman,serif" font-size="14.00">EditUser.End</text>
</g>
<!-- EditUser.EditUser&#45;&gt;EditUser.End -->
<g id="edge20" class="edge"><title>EditUser.EditUser&#45;&gt;EditUser.End</title>
<path fill="none" stroke="black" d="M557.068,-613.546C547.146,-608.427 537.879,-601.453 532,-592 516.224,-566.635 534.436,-534.325 551.568,-512.501"/>
<polygon fill="black" stroke="black" points="554.349,-514.63 558.007,-504.687 548.947,-510.178 554.349,-514.63"/>
<text text-anchor="middle" x="657" y="-580.8" font-family="Times New Roman,serif" font-size="14.00">[${action}=&quot;saveUser&quot;] / [${event}=&quot;save&quot;]</text>
</g>
<!-- EditUser.End&#45;&gt;$ -->
<g id="edge4" class="edge"><title>EditUser.End&#45;&gt;$</title>
<path fill="none" stroke="black" d="M574,-468.938C574,-451.023 574,-422.031 574,-397 574,-397 574,-397 574,-98 574,-69.4109 601.548,-48.4333 624.109,-36.047"/>
<polygon fill="black" stroke="black" points="625.788,-39.1193 633.065,-31.4192 622.574,-32.9004 625.788,-39.1193"/>
</g>
<!-- EditUser.Start -->
<g id="node10" class="node"><title>EditUser.Start</title>
<ellipse fill="none" stroke="black" cx="603" cy="-701" rx="61.99" ry="18"/>
<text text-anchor="middle" x="603" y="-697.3" font-family="Times New Roman,serif" font-size="14.00">EditUser.Start</text>
</g>
<!-- EditUser.Start&#45;&gt;$ -->
<g id="edge1" class="edge"><title>EditUser.Start&#45;&gt;$</title>
<path fill="none" stroke="black" d="M558.166,-688.564C529.627,-678.285 498,-659.918 498,-629 498,-629 498,-629 498,-98 498,-43.9186 575.405,-28.8189 620.815,-24.6138"/>
<polygon fill="black" stroke="black" points="621.103,-28.1021 630.792,-23.8162 620.545,-21.1243 621.103,-28.1021"/>
</g>
<!-- EditUser.Start&#45;&gt;EditUser.EditUser -->
<g id="edge16" class="edge"><title>EditUser.Start&#45;&gt;EditUser.EditUser</title>
<path fill="none" stroke="black" d="M603,-682.813C603,-674.789 603,-665.047 603,-656.069"/>
<polygon fill="black" stroke="black" points="606.5,-656.029 603,-646.029 599.5,-656.029 606.5,-656.029"/>
</g>
<!-- SearchUsers.EditUserCall -->
<g id="node11" class="node"><title>SearchUsers.EditUserCall</title>
<ellipse fill="none" stroke="black" cx="888" cy="-788" rx="104.782" ry="18"/>
<text text-anchor="middle" x="888" y="-784.3" font-family="Times New Roman,serif" font-size="14.00">SearchUsers.EditUserCall</text>
</g>
<!-- SearchUsers.EditUserCall&#45;&gt;$ -->
<g id="edge15" class="edge"><title>SearchUsers.EditUserCall&#45;&gt;$</title>
<path fill="none" stroke="black" d="M992.91,-787.867C1230.86,-788.444 1791,-781.372 1791,-702 1791,-702 1791,-702 1791,-98 1791,-41.0044 870.119,-25.8601 685.134,-23.3929"/>
<polygon fill="black" stroke="black" points="685.013,-19.8911 674.969,-23.2603 684.922,-26.8905 685.013,-19.8911"/>
</g>
<!-- SearchUsers.EditUserCall&#45;&gt;EditUser.Start -->
<g id="edge43" class="edge"><title>SearchUsers.EditUserCall&#45;&gt;EditUser.Start</title>
<path fill="none" stroke="black" d="M838.031,-772.097C786.439,-756.71 706.338,-732.82 654.272,-717.292"/>
<polygon fill="black" stroke="black" points="655.153,-713.902 644.57,-714.398 653.153,-720.61 655.153,-713.902"/>
</g>
<!-- SearchUsers.End -->
<g id="node12" class="node"><title>SearchUsers.End</title>
<ellipse fill="none" stroke="black" cx="356" cy="-701" rx="73.387" ry="18"/>
<text text-anchor="middle" x="356" y="-697.3" font-family="Times New Roman,serif" font-size="14.00">SearchUsers.End</text>
</g>
<!-- SearchUsers.End&#45;&gt;$ -->
<g id="edge13" class="edge"><title>SearchUsers.End&#45;&gt;$</title>
<path fill="none" stroke="black" d="M357.89,-682.807C359.306,-668.443 361,-647.412 361,-629 361,-629 361,-629 361,-98 361,-44.8709 544.638,-28.8405 620.653,-24.4807"/>
<polygon fill="black" stroke="black" points="621.256,-27.9534 631.053,-23.9192 620.878,-20.9635 621.256,-27.9534"/>
</g>
<!-- SearchUsers.Gebaeudeeigentuemer -->
<g id="node13" class="node"><title>SearchUsers.Gebaeudeeigentuemer</title>
<ellipse fill="none" stroke="black" cx="166" cy="-788" rx="138.375" ry="18"/>
<text text-anchor="middle" x="166" y="-784.3" font-family="Times New Roman,serif" font-size="14.00">SearchUsers.Gebaeudeeigentuemer</text>
</g>
<!-- SearchUsers.Gebaeudeeigentuemer&#45;&gt;$ -->
<g id="edge12" class="edge"><title>SearchUsers.Gebaeudeeigentuemer&#45;&gt;$</title>
<path fill="none" stroke="black" d="M166.322,-769.744C166.614,-752.572 167,-725.465 167,-702 167,-702 167,-702 167,-98 167,-51.938 512.393,-30.2371 620.832,-24.559"/>
<polygon fill="black" stroke="black" points="621.047,-28.0527 630.855,-24.0448 620.688,-21.0619 621.047,-28.0527"/>
</g>
<!-- SearchUsers.Gebaeudeeigentuemer&#45;&gt;SearchUsers.End -->
<g id="edge41" class="edge"><title>SearchUsers.Gebaeudeeigentuemer&#45;&gt;SearchUsers.End</title>
<path fill="none" stroke="black" d="M175.698,-769.657C182.722,-758.672 193.212,-745.065 206,-737 227.47,-723.46 253.641,-715.149 278.075,-710.051"/>
<polygon fill="black" stroke="black" points="278.905,-713.455 288.059,-708.121 277.577,-706.583 278.905,-713.455"/>
<text text-anchor="middle" x="266" y="-740.8" font-family="Times New Roman,serif" font-size="14.00">[] / [${event}=&quot;end&quot;]</text>
</g>
<!-- SearchUsers.Gebauedeeigentuemer2 -->
<g id="node14" class="node"><title>SearchUsers.Gebauedeeigentuemer2</title>
<ellipse fill="none" stroke="black" cx="621" cy="-788" rx="142.975" ry="18"/>
<text text-anchor="middle" x="621" y="-784.3" font-family="Times New Roman,serif" font-size="14.00">SearchUsers.Gebauedeeigentuemer2</text>
</g>
<!-- SearchUsers.Gebauedeeigentuemer2&#45;&gt;$ -->
<g id="edge14" class="edge"><title>SearchUsers.Gebauedeeigentuemer2&#45;&gt;$</title>
<path fill="none" stroke="black" d="M593.689,-770.209C547.755,-739.628 460,-670.13 460,-585.5 460,-585.5 460,-585.5 460,-98 460,-63.8064 566.58,-39.0156 621.337,-28.5354"/>
<polygon fill="black" stroke="black" points="622.047,-31.9634 631.236,-26.6888 620.763,-25.0821 622.047,-31.9634"/>
</g>
<!-- SearchUsers.Gebauedeeigentuemer2&#45;&gt;SearchUsers.End -->
<g id="edge42" class="edge"><title>SearchUsers.Gebauedeeigentuemer2&#45;&gt;SearchUsers.End</title>
<path fill="none" stroke="black" d="M520.532,-775.16C454.778,-767.018 379.942,-756.835 374,-752 367.005,-746.308 362.727,-737.673 360.112,-729.172"/>
<polygon fill="black" stroke="black" points="363.508,-728.327 357.742,-719.439 356.707,-729.984 363.508,-728.327"/>
<text text-anchor="middle" x="434" y="-740.8" font-family="Times New Roman,serif" font-size="14.00">[] / [${event}=&quot;end&quot;]</text>
</g>
<!-- SearchUsers.SearchUsers -->
<g id="node15" class="node"><title>SearchUsers.SearchUsers</title>
<ellipse fill="none" stroke="black" cx="373" cy="-875" rx="104.782" ry="18"/>
<text text-anchor="middle" x="373" y="-871.3" font-family="Times New Roman,serif" font-size="14.00">SearchUsers.SearchUsers</text>
</g>
<!-- SearchUsers.SearchUsers&#45;&gt;$ -->
<g id="edge11" class="edge"><title>SearchUsers.SearchUsers&#45;&gt;$</title>
<path fill="none" stroke="black" d="M477.42,-873.359C810.965,-870.63 1829,-856.753 1829,-789 1829,-789 1829,-789 1829,-98 1829,-44.6564 1895.89,-81.8686 1652,-62 1272.52,-31.086 809.886,-24.5158 685.22,-23.2683"/>
<polygon fill="black" stroke="black" points="685.224,-19.7682 675.191,-23.1723 685.157,-26.7679 685.224,-19.7682"/>
</g>
<!-- SearchUsers.SearchUsers&#45;&gt;SearchUsers.EditUserCall -->
<g id="edge37" class="edge"><title>SearchUsers.SearchUsers&#45;&gt;SearchUsers.EditUserCall</title>
<path fill="none" stroke="black" d="M476.55,-872.384C612.079,-869.401 836.1,-861.151 867,-839 874.672,-833.5 879.556,-824.638 882.659,-815.892"/>
<polygon fill="black" stroke="black" points="886.031,-816.831 885.459,-806.251 879.309,-814.878 886.031,-816.831"/>
<text text-anchor="middle" x="1003" y="-827.8" font-family="Times New Roman,serif" font-size="14.00">[${action}=&quot;editUser&quot;] / [${event}=&quot;open&quot;]</text>
</g>
<!-- SearchUsers.SearchUsers&#45;&gt;SearchUsers.EditUserCall -->
<g id="edge38" class="edge"><title>SearchUsers.SearchUsers&#45;&gt;SearchUsers.EditUserCall</title>
<path fill="none" stroke="black" d="M472.854,-869.608C513.325,-865.036 559.69,-856.13 599,-839 608.863,-834.702 608.057,-828.11 618,-824 682.093,-797.508 704.244,-815.072 773,-806 782.604,-804.733 792.65,-803.343 802.634,-801.921"/>
<polygon fill="black" stroke="black" points="803.178,-805.379 812.578,-800.492 802.182,-798.45 803.178,-805.379"/>
<text text-anchor="middle" x="740.5" y="-827.8" font-family="Times New Roman,serif" font-size="14.00">[${action}=&quot;newUser&quot;] / [${event}=&quot;new&quot;]</text>
</g>
<!-- SearchUsers.SearchUsers&#45;&gt;SearchUsers.End -->
<g id="edge39" class="edge"><title>SearchUsers.SearchUsers&#45;&gt;SearchUsers.End</title>
<path fill="none" stroke="black" d="M365.105,-856.825C359.357,-843.332 352.065,-823.892 349,-806 344.557,-780.06 347.421,-750.03 350.724,-728.927"/>
<polygon fill="black" stroke="black" points="354.176,-729.504 352.402,-719.059 347.275,-728.33 354.176,-729.504"/>
<text text-anchor="middle" x="409" y="-784.3" font-family="Times New Roman,serif" font-size="14.00">[] / [${event}=&quot;end&quot;]</text>
</g>
<!-- SearchUsers.SearchUsers&#45;&gt;SearchUsers.Gebaeudeeigentuemer -->
<g id="edge35" class="edge"><title>SearchUsers.SearchUsers&#45;&gt;SearchUsers.Gebaeudeeigentuemer</title>
<path fill="none" stroke="black" d="M268.389,-873.852C203.647,-871.278 128.993,-862.948 108,-839 99.1706,-828.928 106.274,-819.039 118.137,-810.75"/>
<polygon fill="black" stroke="black" points="120.31,-813.521 126.974,-805.284 116.628,-807.568 120.31,-813.521"/>
<text text-anchor="middle" x="217" y="-827.8" font-family="Times New Roman,serif" font-size="14.00">[] / [${event}=&quot;gebaeudeeigentuemer&quot;]</text>
</g>
<!-- SearchUsers.SearchUsers&#45;&gt;SearchUsers.Gebauedeeigentuemer2 -->
<g id="edge36" class="edge"><title>SearchUsers.SearchUsers&#45;&gt;SearchUsers.Gebauedeeigentuemer2</title>
<path fill="none" stroke="black" d="M368.208,-856.69C366.372,-845.999 366.285,-832.708 374,-824 378.771,-818.615 445.148,-809.389 507.885,-801.762"/>
<polygon fill="black" stroke="black" points="508.403,-805.224 517.912,-800.552 507.565,-798.275 508.403,-805.224"/>
<text text-anchor="middle" x="486.5" y="-827.8" font-family="Times New Roman,serif" font-size="14.00">[] / [${event}=&quot;gebaeudeeigentuemer2&quot;]</text>
</g>
<!-- SearchUsers.SearchUsers&#45;&gt;SearchUsers.SearchUsers -->
<g id="edge33" class="edge"><title>SearchUsers.SearchUsers&#45;&gt;SearchUsers.SearchUsers</title>
<path fill="none" stroke="black" d="M477.232,-876.879C488.435,-876.517 495.641,-875.891 495.641,-875 495.641,-874.416 492.537,-873.945 487.238,-873.588"/>
<polygon fill="black" stroke="black" points="487.384,-870.091 477.232,-873.121 487.058,-877.084 487.384,-870.091"/>
<text text-anchor="middle" x="618.641" y="-871.3" font-family="Times New Roman,serif" font-size="14.00">[${action}=&quot;search&quot;] / [${event}=&quot;search&quot;]</text>
</g>
<!-- SearchUsers.SearchUsers&#45;&gt;SearchUsers.SearchUsers -->
<g id="edge34" class="edge"><title>SearchUsers.SearchUsers&#45;&gt;SearchUsers.SearchUsers</title>
<path fill="none" stroke="black" d="M475.53,-878.813C586.083,-880.443 741.641,-879.172 741.641,-875 741.641,-870.954 595.359,-869.637 485.689,-871.047"/>
<polygon fill="black" stroke="black" points="485.481,-867.549 475.53,-871.187 485.578,-874.548 485.481,-867.549"/>
<text text-anchor="middle" x="901.141" y="-871.3" font-family="Times New Roman,serif" font-size="14.00">[${action}=&quot;userChanged&quot;] / [${event}=&quot;userChanged&quot;]</text>
</g>
<!-- SearchUsers.SearchUsers&#45;&gt;SearchUsers.SearchUsers -->
<g id="edge40" class="edge"><title>SearchUsers.SearchUsers&#45;&gt;SearchUsers.SearchUsers</title>
<path fill="none" stroke="black" d="M474.511,-879.532C667.868,-883.59 1060.64,-882.08 1060.64,-875 1060.64,-868.041 681.178,-866.463 484.596,-870.265"/>
<polygon fill="black" stroke="black" points="484.438,-866.767 474.511,-870.468 484.579,-873.766 484.438,-866.767"/>
</g>
<!-- SearchUsers.Start -->
<g id="node16" class="node"><title>SearchUsers.Start</title>
<polygon fill="none" stroke="black" points="183.303,-943.995 166.606,-959.223 99,-966 31.3939,-959.223 14.6966,-943.995 61.4815,-931.783 136.519,-931.783 183.303,-943.995"/>
<text text-anchor="middle" x="99" y="-944.3" font-family="Times New Roman,serif" font-size="14.00">SearchUsers.Start</text>
</g>
<!-- SearchUsers.Start&#45;&gt;$ -->
<g id="edge10" class="edge"><title>SearchUsers.Start&#45;&gt;$</title>
<path fill="none" stroke="black" d="M53.8456,-933.666C27.7354,-922.871 0,-904.659 0,-876 0,-876 0,-876 0,-98 0,-34.8033 488.955,-24.8189 620.658,-23.2758"/>
<polygon fill="black" stroke="black" points="620.938,-26.7731 630.899,-23.1647 620.862,-19.7735 620.938,-26.7731"/>
</g>
<!-- SearchUsers.Start&#45;&gt;SearchUsers.SearchUsers -->
<g id="edge32" class="edge"><title>SearchUsers.Start&#45;&gt;SearchUsers.SearchUsers</title>
<path fill="none" stroke="black" d="M147.355,-934.47C191.911,-922.924 258.391,-905.698 307.66,-892.931"/>
<polygon fill="black" stroke="black" points="308.783,-896.256 317.586,-890.359 307.027,-889.48 308.783,-896.256"/>
</g>
</g>
</svg>
