<?xml version="1.0" encoding="UTF-8" standalone="no"?>
<!DOCTYPE svg PUBLIC "-//W3C//DTD SVG 1.1//EN"
 "http://www.w3.org/Graphics/SVG/1.1/DTD/svg11.dtd">
<!-- Generated by graphviz version 2.38.0 (20140413.2041)
 -->
<!-- Title: G Pages: 1 -->
<svg width="2542pt" height="2233pt"
 viewBox="0.00 0.00 305.03 268.00" xmlns="http://www.w3.org/2000/svg" xmlns:xlink="http://www.w3.org/1999/xlink">
<g id="graph0" class="graph" transform="scale(8.33333 8.33333) rotate(0) translate(4 264)">
<title>G</title>
<polygon fill="white" stroke="none" points="-4,4 -4,-264 301.028,-264 301.028,4 -4,4"/>
<!-- $ -->
<g id="node1" class="node"><title>$</title>
<ellipse fill="none" stroke="black" cx="61.136" cy="-22" rx="18" ry="18"/>
<ellipse fill="none" stroke="black" cx="61.136" cy="-22" rx="22" ry="22"/>
<text text-anchor="middle" x="61.136" y="-18.3" font-family="Times New Roman,serif" font-size="14.00">$</text>
</g>
<!-- _init -->
<g id="node2" class="node"><title>_init</title>
<polygon fill="none" stroke="black" points="123.789,-237.995 117.916,-253.223 94.136,-260 70.3557,-253.223 64.4825,-237.995 80.9389,-225.783 107.333,-225.783 123.789,-237.995"/>
<text text-anchor="middle" x="94.136" y="-238.3" font-family="Times New Roman,serif" font-size="14.00">_init</text>
</g>
<!-- _init&#45;&gt;$ -->
<g id="edge1" class="edge"><title>_init&#45;&gt;$</title>
<path fill="none" stroke="black" d="M70.1989,-233.464C49.8866,-225.653 22.0468,-211.265 9.13598,-188 -16.4165,-141.954 17.4242,-81.5838 41.2885,-48.1091"/>
<polygon fill="black" stroke="black" points="44.2888,-49.9373 47.3977,-39.8088 38.6511,-45.7879 44.2888,-49.9373"/>
</g>
<!-- _init&#45;&gt;_init -->
<g id="edge4" class="edge"><title>_init&#45;&gt;_init</title>
<path fill="none" stroke="black" d="M114.675,-254.31C128.376,-257.775 141.713,-253.672 141.713,-242 141.713,-232.835 133.49,-228.337 123.325,-228.505"/>
<polygon fill="black" stroke="black" points="122.525,-225.087 113.189,-230.095 123.61,-232.002 122.525,-225.087"/>
</g>
<!-- doAtomicityTests -->
<g id="node3" class="node"><title>doAtomicityTests</title>
<ellipse fill="none" stroke="black" cx="94.136" cy="-170" rx="76.0865" ry="18"/>
<text text-anchor="middle" x="94.136" y="-166.3" font-family="Times New Roman,serif" font-size="14.00">doAtomicityTests</text>
</g>
<!-- _init&#45;&gt;doAtomicityTests -->
<g id="edge6" class="edge"><title>_init&#45;&gt;doAtomicityTests</title>
<path fill="none" stroke="black" d="M88.416,-225.465C87.4585,-217.388 87.1686,-207.283 87.5461,-197.977"/>
<polygon fill="black" stroke="black" points="91.0402,-198.184 88.256,-187.962 84.0577,-197.689 91.0402,-198.184"/>
</g>
<!-- doSupplierSetAllURLs -->
<g id="node4" class="node"><title>doSupplierSetAllURLs</title>
<ellipse fill="none" stroke="black" cx="184.136" cy="-98" rx="94.7833" ry="18"/>
<text text-anchor="middle" x="184.136" y="-94.3" font-family="Times New Roman,serif" font-size="14.00">doSupplierSetAllURLs</text>
</g>
<!-- _init&#45;&gt;doSupplierSetAllURLs -->
<g id="edge5" class="edge"><title>_init&#45;&gt;doSupplierSetAllURLs</title>
<path fill="none" stroke="black" d="M118.584,-234.083C141.063,-226.966 172.74,-213.237 188.136,-188 199.526,-169.329 194.562,-144.447 189.202,-125.74"/>
<polygon fill="black" stroke="black" points="192.522,-124.626 186.286,-116.061 185.82,-126.645 192.522,-124.626"/>
</g>
<!-- doAtomicityTests&#45;&gt;$ -->
<g id="edge3" class="edge"><title>doAtomicityTests&#45;&gt;$</title>
<path fill="none" stroke="black" d="M89.3489,-151.876C86.5214,-141.526 82.9552,-128.047 80.136,-116 75.3018,-95.3435 70.5249,-71.9445 66.9701,-53.7847"/>
<polygon fill="black" stroke="black" points="70.3657,-52.9098 65.0271,-43.7583 63.4936,-54.2416 70.3657,-52.9098"/>
</g>
<!-- doAtomicityTests&#45;&gt;_init -->
<g id="edge10" class="edge"><title>doAtomicityTests&#45;&gt;_init</title>
<path fill="none" stroke="black" d="M100.016,-187.962C100.886,-196.176 101.104,-206.213 100.668,-215.337"/>
<polygon fill="black" stroke="black" points="97.1663,-215.217 99.856,-225.465 104.144,-215.776 97.1663,-215.217"/>
</g>
<!-- doAtomicityTests&#45;&gt;doAtomicityTests -->
<g id="edge12" class="edge"><title>doAtomicityTests&#45;&gt;doAtomicityTests</title>
<path fill="none" stroke="black" d="M145.883,-183.315C168.617,-184.493 188.179,-180.055 188.179,-170 188.179,-161.477 174.123,-156.99 155.994,-156.538"/>
<polygon fill="black" stroke="black" points="155.83,-153.04 145.883,-156.685 155.933,-160.039 155.83,-153.04"/>
</g>
<!-- doAtomicityTests&#45;&gt;doSupplierSetAllURLs -->
<g id="edge11" class="edge"><title>doAtomicityTests&#45;&gt;doSupplierSetAllURLs</title>
<path fill="none" stroke="black" d="M110.044,-152.055C120.953,-142.807 135.669,-131.243 149.162,-121.273"/>
<polygon fill="black" stroke="black" points="151.335,-124.021 157.361,-115.307 147.216,-118.361 151.335,-124.021"/>
</g>
<!-- doSupplierSetAllURLs&#45;&gt;$ -->
<g id="edge2" class="edge"><title>doSupplierSetAllURLs&#45;&gt;$</title>
<path fill="none" stroke="black" d="M156.838,-80.577C136.462,-68.3179 108.74,-51.64 88.3773,-39.3891"/>
<polygon fill="black" stroke="black" points="89.965,-36.2597 79.5919,-34.1036 86.3564,-42.2579 89.965,-36.2597"/>
</g>
<!-- doSupplierSetAllURLs&#45;&gt;_init -->
<g id="edge7" class="edge"><title>doSupplierSetAllURLs&#45;&gt;_init</title>
<path fill="none" stroke="black" d="M199.378,-116.061C210.162,-135.019 219.636,-165.871 206.136,-188 190.603,-213.462 158.497,-227.211 132.484,-234.272"/>
<polygon fill="black" stroke="black" points="131.367,-230.942 122.5,-236.742 133.048,-237.738 131.367,-230.942"/>
</g>
<!-- doSupplierSetAllURLs&#45;&gt;doAtomicityTests -->
<g id="edge9" class="edge"><title>doSupplierSetAllURLs&#45;&gt;doAtomicityTests</title>
<path fill="none" stroke="black" d="M168.307,-115.878C157.371,-125.154 142.584,-136.774 129.039,-146.779"/>
<polygon fill="black" stroke="black" points="126.838,-144.052 120.811,-152.765 130.956,-149.712 126.838,-144.052"/>
</g>
<!-- doSupplierSetAllURLs&#45;&gt;doSupplierSetAllURLs -->
<g id="edge8" class="edge"><title>doSupplierSetAllURLs&#45;&gt;doSupplierSetAllURLs</title>
<path fill="none" stroke="black" d="M247.681,-111.371C274.358,-112.336 297.028,-107.879 297.028,-98 297.028,-89.3945 279.826,-84.9032 257.758,-84.5259"/>
<polygon fill="black" stroke="black" points="257.645,-81.0268 247.681,-84.6287 257.717,-88.0265 257.645,-81.0268"/>
</g>
</g>
</svg>
