<?xml version="1.0" encoding="UTF-8" standalone="no"?>
<!DOCTYPE svg PUBLIC "-//W3C//DTD SVG 1.1//EN"
 "http://www.w3.org/Graphics/SVG/1.1/DTD/svg11.dtd">
<!-- Generated by graphviz version 2.38.0 (20140413.2041)
 -->
<!-- Title: G Pages: 1 -->
<svg width="14781pt" height="6058pt"
 viewBox="0.00 0.00 1773.69 727.00" xmlns="http://www.w3.org/2000/svg" xmlns:xlink="http://www.w3.org/1999/xlink">
<g id="graph0" class="graph" transform="scale(8.33333 8.33333) rotate(0) translate(4 723)">
<title>G</title>
<polygon fill="white" stroke="none" points="-4,4 -4,-723 1769.69,-723 1769.69,4 -4,4"/>
<!-- $ -->
<g id="node1" class="node"><title>$</title>
<ellipse fill="none" stroke="black" cx="717" cy="-22" rx="18" ry="18"/>
<ellipse fill="none" stroke="black" cx="717" cy="-22" rx="22" ry="22"/>
<text text-anchor="middle" x="717" y="-18.3" font-family="Times New Roman,serif" font-size="14.00">$</text>
</g>
<!-- EditReservation.End -->
<g id="node2" class="node"><title>EditReservation.End</title>
<ellipse fill="none" stroke="black" cx="444" cy="-99" rx="85.2851" ry="18"/>
<text text-anchor="middle" x="444" y="-95.3" font-family="Times New Roman,serif" font-size="14.00">EditReservation.End</text>
</g>
<!-- EditReservation.End&#45;&gt;$ -->
<g id="edge5" class="edge"><title>EditReservation.End&#45;&gt;$</title>
<path fill="none" stroke="black" d="M493.755,-84.3311C549.803,-68.9332 639.169,-44.3822 686.025,-31.5097"/>
<polygon fill="black" stroke="black" points="687.178,-34.8225 695.894,-28.7984 685.324,-28.0726 687.178,-34.8225"/>
</g>
<!-- EditReservation.ReservationCar -->
<g id="node3" class="node"><title>EditReservation.ReservationCar</title>
<ellipse fill="none" stroke="black" cx="463" cy="-273" rx="126.978" ry="18"/>
<text text-anchor="middle" x="463" y="-269.3" font-family="Times New Roman,serif" font-size="14.00">EditReservation.ReservationCar</text>
</g>
<!-- EditReservation.ReservationCar&#45;&gt;$ -->
<g id="edge3" class="edge"><title>EditReservation.ReservationCar&#45;&gt;$</title>
<path fill="none" stroke="black" d="M585.287,-268.116C635.819,-263.772 686.466,-254.903 703,-237 749.167,-187.01 736.55,-99.3256 725.553,-53.2476"/>
<polygon fill="black" stroke="black" points="728.878,-52.117 723.041,-43.2747 722.09,-53.8267 728.878,-52.117"/>
</g>
<!-- EditReservation.ReservationLocation -->
<g id="node4" class="node"><title>EditReservation.ReservationLocation</title>
<ellipse fill="none" stroke="black" cx="212" cy="-360" rx="145.674" ry="18"/>
<text text-anchor="middle" x="212" y="-356.3" font-family="Times New Roman,serif" font-size="14.00">EditReservation.ReservationLocation</text>
</g>
<!-- EditReservation.ReservationCar&#45;&gt;EditReservation.ReservationLocation -->
<g id="edge15" class="edge"><title>EditReservation.ReservationCar&#45;&gt;EditReservation.ReservationLocation</title>
<path fill="none" stroke="black" d="M481.93,-290.954C491.166,-301.245 498.614,-314.234 490,-324 479.919,-335.43 413.091,-344.056 347.489,-349.885"/>
<polygon fill="black" stroke="black" points="347.063,-346.409 337.404,-350.761 347.669,-353.383 347.063,-346.409"/>
<text text-anchor="middle" x="608" y="-312.8" font-family="Times New Roman,serif" font-size="14.00">[${action}=&quot;back&quot;] / [${event}=&quot;back&quot;]</text>
</g>
<!-- EditReservation.ReservationSuccess -->
<g id="node5" class="node"><title>EditReservation.ReservationSuccess</title>
<ellipse fill="none" stroke="black" cx="444" cy="-186" rx="143.775" ry="18"/>
<text text-anchor="middle" x="444" y="-182.3" font-family="Times New Roman,serif" font-size="14.00">EditReservation.ReservationSuccess</text>
</g>
<!-- EditReservation.ReservationCar&#45;&gt;EditReservation.ReservationSuccess -->
<g id="edge16" class="edge"><title>EditReservation.ReservationCar&#45;&gt;EditReservation.ReservationSuccess</title>
<path fill="none" stroke="black" d="M430.539,-255.474C423.892,-250.488 417.779,-244.343 414,-237 409.782,-228.803 412.361,-220.111 417.434,-212.314"/>
<polygon fill="black" stroke="black" points="420.32,-214.305 423.716,-204.269 414.803,-209.997 420.32,-214.305"/>
<text text-anchor="middle" x="558.5" y="-225.8" font-family="Times New Roman,serif" font-size="14.00">[${action}=&quot;saveReservation&quot;] / [${event}=&quot;save&quot;]</text>
</g>
<!-- EditReservation.ReservationLocation&#45;&gt;$ -->
<g id="edge2" class="edge"><title>EditReservation.ReservationLocation&#45;&gt;$</title>
<path fill="none" stroke="black" d="M354.29,-356.113C495.441,-352.166 695.077,-343.241 726,-324 747.812,-310.428 755,-299.69 755,-274 755,-274 755,-274 755,-98 755,-79.9194 746.104,-61.7769 736.92,-47.8653"/>
<polygon fill="black" stroke="black" points="739.558,-45.5326 730.934,-39.3776 733.837,-49.5669 739.558,-45.5326"/>
</g>
<!-- EditReservation.ReservationLocation&#45;&gt;EditReservation.End -->
<g id="edge14" class="edge"><title>EditReservation.ReservationLocation&#45;&gt;EditReservation.End</title>
<path fill="none" stroke="black" d="M205.027,-341.679C202.072,-331.963 199.94,-319.684 203,-309 223.342,-237.986 235.247,-216.46 291,-168 317.923,-144.599 354.193,-128.007 384.661,-117.074"/>
<polygon fill="black" stroke="black" points="386.029,-120.304 394.33,-113.722 383.736,-113.691 386.029,-120.304"/>
<text text-anchor="middle" x="298.5" y="-225.8" font-family="Times New Roman,serif" font-size="14.00">[] / [${event}=&quot;exit&quot;]</text>
</g>
<!-- EditReservation.ReservationLocation&#45;&gt;EditReservation.ReservationCar -->
<g id="edge13" class="edge"><title>EditReservation.ReservationLocation&#45;&gt;EditReservation.ReservationCar</title>
<path fill="none" stroke="black" d="M207.203,-341.685C205.366,-330.993 205.278,-317.702 213,-309 229.125,-290.831 278.166,-281.834 328.591,-277.473"/>
<polygon fill="black" stroke="black" points="328.998,-280.952 338.685,-276.661 328.437,-273.974 328.998,-280.952"/>
<text text-anchor="middle" x="351.5" y="-312.8" font-family="Times New Roman,serif" font-size="14.00">[${action}=&quot;selectCar&quot;] / [${event}=&quot;selectCar&quot;]</text>
</g>
<!-- EditReservation.ReservationLocation&#45;&gt;EditReservation.ReservationLocation -->
<g id="edge11" class="edge"><title>EditReservation.ReservationLocation&#45;&gt;EditReservation.ReservationLocation</title>
<path fill="none" stroke="black" d="M356.109,-362.608C368.117,-362.047 375.587,-361.178 375.587,-360 375.587,-359.209 372.215,-358.557 366.36,-358.044"/>
<polygon fill="black" stroke="black" points="366.311,-354.533 356.109,-357.392 365.867,-361.519 366.311,-354.533"/>
<text text-anchor="middle" x="498.587" y="-356.3" font-family="Times New Roman,serif" font-size="14.00">[${action}=&quot;search&quot;] / [${event}=&quot;search&quot;]</text>
</g>
<!-- EditReservation.ReservationLocation&#45;&gt;EditReservation.ReservationLocation -->
<g id="edge12" class="edge"><title>EditReservation.ReservationLocation&#45;&gt;EditReservation.ReservationLocation</title>
<path fill="none" stroke="black" d="M349.192,-366.066C469.915,-367.955 621.587,-365.933 621.587,-360 621.587,-354.235 478.384,-352.163 359.519,-353.783"/>
<polygon fill="black" stroke="black" points="359.14,-350.288 349.192,-353.934 359.242,-357.287 359.14,-350.288"/>
<text text-anchor="middle" x="802.087" y="-356.3" font-family="Times New Roman,serif" font-size="14.00">[${action}=&quot;locationChanged&quot;] / [${event}=&quot;locationChanged&quot;]</text>
</g>
<!-- EditReservation.ReservationSuccess&#45;&gt;$ -->
<g id="edge4" class="edge"><title>EditReservation.ReservationSuccess&#45;&gt;$</title>
<path fill="none" stroke="black" d="M522.694,-170.937C541.167,-165.856 560.315,-159.051 577,-150 626.042,-123.397 671.692,-76.1146 696.826,-47.3538"/>
<polygon fill="black" stroke="black" points="699.486,-49.6282 703.356,-39.7655 694.18,-45.062 699.486,-49.6282"/>
</g>
<!-- EditReservation.ReservationSuccess&#45;&gt;EditReservation.End -->
<g id="edge17" class="edge"><title>EditReservation.ReservationSuccess&#45;&gt;EditReservation.End</title>
<path fill="none" stroke="black" d="M444,-167.799C444,-156.163 444,-140.548 444,-127.237"/>
<polygon fill="black" stroke="black" points="447.5,-127.175 444,-117.175 440.5,-127.175 447.5,-127.175"/>
<text text-anchor="middle" x="508.5" y="-138.8" font-family="Times New Roman,serif" font-size="14.00">[] / [${event}=&quot;close&quot;]</text>
</g>
<!-- EditReservation.Start -->
<g id="node6" class="node"><title>EditReservation.Start</title>
<ellipse fill="none" stroke="black" cx="406" cy="-433" rx="87.9851" ry="18"/>
<text text-anchor="middle" x="406" y="-429.3" font-family="Times New Roman,serif" font-size="14.00">EditReservation.Start</text>
</g>
<!-- EditReservation.Start&#45;&gt;$ -->
<g id="edge1" class="edge"><title>EditReservation.Start&#45;&gt;$</title>
<path fill="none" stroke="black" d="M493.281,-430.905C664.74,-427.589 1029,-414.273 1029,-361 1029,-361 1029,-361 1029,-98 1029,-40.952 829.311,-27.1807 749.443,-23.9542"/>
<polygon fill="black" stroke="black" points="749.562,-20.4563 739.438,-23.5804 749.301,-27.4514 749.562,-20.4563"/>
</g>
<!-- EditReservation.Start&#45;&gt;EditReservation.ReservationLocation -->
<g id="edge10" class="edge"><title>EditReservation.Start&#45;&gt;EditReservation.ReservationLocation</title>
<path fill="none" stroke="black" d="M364.858,-416.943C336.03,-406.392 297.217,-392.188 265.915,-380.732"/>
<polygon fill="black" stroke="black" points="267.056,-377.422 256.462,-377.272 264.65,-383.996 267.056,-377.422"/>
</g>
<!-- EditUser.EditReservationCall -->
<g id="node7" class="node"><title>EditUser.EditReservationCall</title>
<ellipse fill="none" stroke="black" cx="406" cy="-541" rx="116.18" ry="18"/>
<text text-anchor="middle" x="406" y="-537.3" font-family="Times New Roman,serif" font-size="14.00">EditUser.EditReservationCall</text>
</g>
<!-- EditUser.EditReservationCall&#45;&gt;$ -->
<g id="edge8" class="edge"><title>EditUser.EditReservationCall&#45;&gt;$</title>
<path fill="none" stroke="black" d="M308.349,-531.172C199.327,-518.548 38,-490.347 38,-434 38,-434 38,-434 38,-98 38,-32.1089 549.684,-24.0981 684.674,-23.1312"/>
<polygon fill="black" stroke="black" points="684.817,-26.6305 694.794,-23.0671 684.773,-19.6306 684.817,-26.6305"/>
</g>
<!-- EditUser.EditReservationCall&#45;&gt;EditReservation.Start -->
<g id="edge25" class="edge"><title>EditUser.EditReservationCall&#45;&gt;EditReservation.Start</title>
<path fill="none" stroke="black" d="M406,-522.969C406,-506.378 406,-480.883 406,-461.431"/>
<polygon fill="black" stroke="black" points="409.5,-461.341 406,-451.341 402.5,-461.341 409.5,-461.341"/>
</g>
<!-- EditUser.EditUser -->
<g id="node8" class="node"><title>EditUser.EditUser</title>
<ellipse fill="none" stroke="black" cx="606" cy="-628" rx="76.8869" ry="18"/>
<text text-anchor="middle" x="606" y="-624.3" font-family="Times New Roman,serif" font-size="14.00">EditUser.EditUser</text>
</g>
<!-- EditUser.EditUser&#45;&gt;$ -->
<g id="edge7" class="edge"><title>EditUser.EditUser&#45;&gt;$</title>
<path fill="none" stroke="black" d="M682.333,-626.025C810.17,-623.723 1056.71,-616.172 1088,-592 1106.57,-577.651 1105,-565.472 1105,-542 1105,-542 1105,-542 1105,-98 1105,-25.8179 842.868,-21.6258 749.521,-22.4213"/>
<polygon fill="black" stroke="black" points="749.215,-18.9244 739.254,-22.5353 749.292,-25.924 749.215,-18.9244"/>
</g>
<!-- EditUser.EditUser&#45;&gt;EditUser.EditReservationCall -->
<g id="edge21" class="edge"><title>EditUser.EditUser&#45;&gt;EditUser.EditReservationCall</title>
<path fill="none" stroke="black" d="M537.98,-619.629C510.89,-614.604 480.224,-606.163 455,-592 443.853,-585.741 433.593,-576.184 425.374,-567.096"/>
<polygon fill="black" stroke="black" points="427.874,-564.634 418.705,-559.325 422.562,-569.193 427.874,-564.634"/>
<text text-anchor="middle" x="628" y="-580.8" font-family="Times New Roman,serif" font-size="14.00">[${action}=&quot;editReservation&quot;] / [${event}=&quot;editReservation&quot;]</text>
</g>
<!-- EditUser.EditUser&#45;&gt;EditUser.EditUser -->
<g id="edge19" class="edge"><title>EditUser.EditUser&#45;&gt;EditUser.EditUser</title>
<path fill="none" stroke="black" d="M682.537,-629.514C693.402,-629.269 700.693,-628.765 700.693,-628 700.693,-627.51 697.701,-627.127 692.694,-626.85"/>
<polygon fill="black" stroke="black" points="692.656,-623.347 682.537,-626.486 692.405,-630.342 692.656,-623.347"/>
<text text-anchor="middle" x="885.693" y="-624.3" font-family="Times New Roman,serif" font-size="14.00">[${action}=&quot;deleteReservation&quot;] / [${event}=&quot;deleteReservation&quot;]</text>
</g>
<!-- EditUser.EditUser&#45;&gt;EditUser.EditUser -->
<g id="edge20" class="edge"><title>EditUser.EditUser&#45;&gt;EditUser.EditUser</title>
<path fill="none" stroke="black" d="M682.276,-630.369C815.505,-632.268 1070.69,-631.478 1070.69,-628 1070.69,-624.61 828.299,-623.774 692.654,-625.491"/>
<polygon fill="black" stroke="black" points="692.228,-621.997 682.276,-625.631 692.322,-628.996 692.228,-621.997"/>
<text text-anchor="middle" x="1267.69" y="-624.3" font-family="Times New Roman,serif" font-size="14.00">[${action}=&quot;reservationChanged&quot;] / [${event}=&quot;reservationChanged&quot;]</text>
</g>
<!-- EditUser.EditUser&#45;&gt;EditUser.EditUser -->
<g id="edge23" class="edge"><title>EditUser.EditUser&#45;&gt;EditUser.EditUser</title>
<path fill="none" stroke="black" d="M681.996,-630.764C893.756,-634.57 1464.69,-633.649 1464.69,-628 1464.69,-622.439 911.459,-621.459 692.182,-625.061"/>
<polygon fill="black" stroke="black" points="691.934,-621.565 681.996,-625.236 692.054,-628.564 691.934,-621.565"/>
<text text-anchor="middle" x="1526.69" y="-624.3" font-family="Times New Roman,serif" font-size="14.00">[] / [${guard}=&quot;End&quot;]</text>
</g>
<!-- EditUser.EditUser&#45;&gt;EditUser.EditUser -->
<g id="edge24" class="edge"><title>EditUser.EditUser&#45;&gt;EditUser.EditUser</title>
<path fill="none" stroke="black" d="M681.333,-631.431C913.578,-636.799 1588.69,-635.655 1588.69,-628 1588.69,-620.453 932.562,-619.235 691.462,-624.344"/>
<polygon fill="black" stroke="black" points="691.253,-620.848 681.333,-624.569 691.408,-627.846 691.253,-620.848"/>
<text text-anchor="middle" x="1650.19" y="-624.3" font-family="Times New Roman,serif" font-size="14.00">[] / [${guard}=&quot;else&quot;]</text>
</g>
<!-- EditUser.End -->
<g id="node9" class="node"><title>EditUser.End</title>
<ellipse fill="none" stroke="black" cx="983" cy="-487" rx="59.5901" ry="18"/>
<text text-anchor="middle" x="983" y="-483.3" font-family="Times New Roman,serif" font-size="14.00">EditUser.End</text>
</g>
<!-- EditUser.EditUser&#45;&gt;EditUser.End -->
<g id="edge22" class="edge"><title>EditUser.EditUser&#45;&gt;EditUser.End</title>
<path fill="none" stroke="black" d="M675.637,-620.354C713.529,-615.296 760.75,-606.618 801,-592 857.918,-571.328 917.737,-533.59 952.638,-509.706"/>
<polygon fill="black" stroke="black" points="954.725,-512.518 960.958,-503.951 950.742,-506.761 954.725,-512.518"/>
<text text-anchor="middle" x="959" y="-580.8" font-family="Times New Roman,serif" font-size="14.00">[${action}=&quot;saveUser&quot;] / [${event}=&quot;save&quot;]</text>
</g>
<!-- EditUser.End&#45;&gt;$ -->
<g id="edge9" class="edge"><title>EditUser.End&#45;&gt;$</title>
<path fill="none" stroke="black" d="M1011.44,-471.041C1035.81,-455.943 1067,-430.145 1067,-397 1067,-397 1067,-397 1067,-98 1067,-33.3487 835.786,-24.2461 749.21,-23.1039"/>
<polygon fill="black" stroke="black" points="749.196,-19.6036 739.16,-22.999 749.123,-26.6032 749.196,-19.6036"/>
</g>
<!-- EditUser.Start -->
<g id="node10" class="node"><title>EditUser.Start</title>
<polygon fill="none" stroke="black" points="225.563,-696.995 211.983,-712.223 157,-719 102.017,-712.223 88.4375,-696.995 126.487,-684.783 187.513,-684.783 225.563,-696.995"/>
<text text-anchor="middle" x="157" y="-697.3" font-family="Times New Roman,serif" font-size="14.00">EditUser.Start</text>
</g>
<!-- EditUser.Start&#45;&gt;$ -->
<g id="edge6" class="edge"><title>EditUser.Start&#45;&gt;$</title>
<path fill="none" stroke="black" d="M92.2357,-695.716C48.9882,-688.919 0,-671.778 0,-629 0,-629 0,-629 0,-98 0,-28.1662 544.968,-23.0921 684.678,-22.9387"/>
<polygon fill="black" stroke="black" points="684.756,-26.4388 694.755,-22.9357 684.754,-19.4388 684.756,-26.4388"/>
</g>
<!-- EditUser.Start&#45;&gt;EditUser.EditUser -->
<g id="edge18" class="edge"><title>EditUser.Start&#45;&gt;EditUser.EditUser</title>
<path fill="none" stroke="black" d="M209.385,-691.716C289.766,-679.006 443.717,-654.662 534.358,-640.329"/>
<polygon fill="black" stroke="black" points="534.947,-643.779 544.278,-638.76 533.854,-636.865 534.947,-643.779"/>
</g>
</g>
</svg>
